<?xml version="1.0" encoding="UTF-8"?><svg id="_イヤー_1" xmlns="http://www.w3.org/2000/svg" viewBox="0 0 464 495"><defs><style>.cls-1{fill:#fff;}.cls-2{fill:#ea4335;}</style></defs><path class="cls-2" d="M372.26,114.46c7-7.68,12.62-16.01,16.54-24.83,3.92-8.81,6.15-18.13,6.15-27.56,0-6.26-1-12.55-3.09-18.59-2.33-6.74-5.72-12.85-9.91-18.15-6.28-7.97-14.33-14.1-23.22-18.22-8.9-4.11-18.67-6.24-28.64-6.24-7.3,0-14.7,1.15-21.91,3.52-10.81,3.55-21.18,9.9-29.92,19.05-8.76,9.15-15.85,21.04-20.5,35.41-6.08,18.69-24.3,61.1-24.81,62.14h-1.73c-.51-1.04-18.72-43.45-24.81-62.14-3.11-9.59-7.28-18.07-12.33-25.36-7.57-10.94-17.09-19.21-27.48-24.62C156.21,3.46,145.02,.86,134.07,.87c-13.28,0-26.25,3.78-37.22,11.03-5.48,3.62-10.46,8.12-14.63,13.43-4.2,5.3-7.59,11.41-9.92,18.15-2.1,6.04-3.09,12.33-3.08,18.59,0,6.27,.99,12.52,2.81,18.59,3.19,10.62,8.87,20.7,16.49,29.9,11.44,13.81,27.26,25.7,46.48,34.23,19.21,8.53,41.86,13.67,66.87,13.67,14.17,0,29.67,.12,30.21,0,.54,.12,16.04,0,30.22,0,19.05,0,36.74-2.98,52.57-8.17,23.76-7.8,43.37-20.51,57.39-35.84Zm-78.23-64.42c5-7.23,10.83-12.14,16.99-15.36,6.16-3.22,12.69-4.7,19.07-4.72,7.74,0,15.19,2.24,21.17,6.21,3.01,1.99,5.65,4.39,7.86,7.19s3.99,5.99,5.26,9.64c.99,2.86,1.47,5.86,1.48,9.07,0,3.22-.5,6.64-1.58,10.24-1.88,6.3-5.54,13.1-11.03,19.72-8.2,9.92-20.43,19.35-35.86,26.18-15.44,6.86-34.05,11.17-55.07,11.17-1.13,0-2.22-.02-3.28-.05,7.64-12.81,16.88-32.21,26.4-61.48,2.32-7.12,5.27-12.97,8.61-17.8Zm-192.07,27.78c-2.5-5.61-3.64-10.94-3.64-15.74,0-3.22,.49-6.21,1.48-9.06v-.02c1.27-3.65,3.05-6.84,5.26-9.64,3.3-4.19,7.6-7.52,12.59-9.83,4.98-2.31,10.62-3.57,16.42-3.57,4.26,0,8.57,.67,12.81,2.07,6.35,2.1,12.49,5.79,18,11.54,5.49,5.74,10.39,13.6,13.87,24.28,9.51,29.26,18.76,48.66,26.4,61.48-1.06,.02-2.15,.04-3.28,.04-16.01,0-30.63-2.5-43.51-6.72-19.32-6.32-34.74-16.59-44.97-27.81-5.13-5.61-8.95-11.43-11.42-17.02Z"/><rect class="cls-2" x=".08" y="186.12" width="464" height="309" rx="48.5" ry="48.5"/><rect class="cls-1" x=".08" y="332.12" width="464" height="17"/><rect class="cls-1" x="77.58" y="332.12" width="309" height="17" transform="translate(-108.54 572.7) rotate(-90)"/><rect class="cls-1" x="81.81" y="394.66" width="184.62" height="24" rx="5.05" ry="5.05" transform="translate(-244.6 263.95) rotate(-48)"/><rect class="cls-1" x="-.24" y="331.31" width="464" height="17"/><rect class="cls-1" x="77.26" y="331.31" width="309" height="17" transform="translate(-108.04 571.57) rotate(-90)"/><circle class="cls-1" cx="232.73" cy="335.82" r="90.59"/><rect class="cls-1" x="81.5" y="393.85" width="184.62" height="24" rx="5.05" ry="5.05" transform="translate(-244.1 263.45) rotate(-48)"/><g><circle class="cls-2" cx="232.65" cy="283.65" r="15.65"/><rect class="cls-2" x="217" y="313.73" width="31.29" height="90.27" rx="11" ry="11"/></g></svg>